<?xml version="1.0" standalone="no"?><svg xmlns:xlink="http://www.w3.org/1999/xlink" xmlns="http://www.w3.org/2000/svg" viewBox="0 0 1000 416.6585246702492" preserveAspectRatio="xMaxYMax slice"><g transform="scale(1.2212994626282365)"><rect x="0" y="0" width="818.8" height="341.1666666666667" fill="#ffffff"/><rect x="750.5666666666667" y="0" width="68.23333333333333" height="68.23333333333333" fill="#ffffff"/><path d="M 750.57 34.12 A 34.12 34.12 0 0 1  784.69 0 L 750.57 34.12 A 34.12 34.12 0 0 0 784.69 0" fill="#fbfcfd"/><path d="M 784.68 34.12 A 34.12 34.12 0 0 1  818.8 0 L 784.68 34.12 A 34.12 34.12 0 0 0 818.8 0" fill="#a9c0cc"/><path d="M 750.57 34.12 A 34.12 34.12 0 0 1  784.69 68.24 L 750.57 34.12 A 34.12 34.12 0 0 0 784.69 68.24" fill="#93bed6"/><rect x="136.46666666666667" y="68.23333333333333" width="68.23333333333333" height="68.23333333333333" fill="#ffffff"/><path d="M 170.58 136.47 A 34.12 34.12 0 0 1  204.70000000000002 102.35 L 170.58 136.47 A 34.12 34.12 0 0 0 204.70000000000002 102.35" fill="#c3d3db"/><path d="M 272.93 68.23 A 68.23 68.23 0 0 1  341.16 136.46 L 272.93 68.23 A 68.23 68.23 0 0 0 341.16 136.46" fill="#c0d1da"/><path d="M 614.1 136.46 A 68.23 68.23 0 0 1  682.33 68.23 L 614.1 136.46 A 68.23 68.23 0 0 0 682.33 68.23" fill="#d2e4ee"/><rect x="136.46666666666667" y="136.46666666666667" width="68.23333333333333" height="68.23333333333333" fill="#ffffff"/><path d="M 136.47 136.47 A 34.12 34.12 0 0 1  170.59 170.59 L 136.47 136.47 A 34.12 34.12 0 0 0 170.59 170.59" fill="#7ab0cc"/><path d="M 136.47 170.58 A 34.12 34.12 0 0 1  170.59 204.70000000000002 L 136.47 170.58 A 34.12 34.12 0 0 0 170.59 204.70000000000002" fill="#75adca"/><path d="M 272.93 204.7 A 68.23 68.23 0 0 1  341.16 136.47 L 272.93 204.7 A 68.23 68.23 0 0 0 341.16 136.47" fill="#40728e"/><rect x="545.8666666666667" y="136.46666666666667" width="68.23333333333333" height="68.23333333333333" fill="#ffffff"/><path d="M 614.1 204.7 A 68.23 68.23 0 0 1  682.33 136.47 L 614.1 204.7 A 68.23 68.23 0 0 0 682.33 136.47" fill="#b9d5e4"/><rect x="682.3333333333334" y="136.46666666666667" width="68.23333333333333" height="68.23333333333333" fill="#ffffff"/><path d="M 682.33 136.47 A 34.12 34.12 0 0 1  716.45 170.59 L 682.33 136.47 A 34.12 34.12 0 0 0 716.45 170.59" fill="#98b3c2"/><path d="M 716.45 170.58 A 34.12 34.12 0 0 1  750.57 204.70000000000002 L 716.45 170.58 A 34.12 34.12 0 0 0 750.57 204.70000000000002" fill="#fefefe"/><path d="M 0 272.93 A 68.23 68.23 0 0 1  68.23 204.7 L 0 272.93 A 68.23 68.23 0 0 0 68.23 204.7" fill="#85a5b7"/><path d="M 136.47 204.7 A 68.23 68.23 0 0 1  204.7 272.93 L 136.47 204.7 A 68.23 68.23 0 0 0 204.7 272.93" fill="#e8f1f6"/><rect x="477.6333333333333" y="204.7" width="68.23333333333333" height="68.23333333333333" fill="#ffffff"/><path d="M 477.63 204.7 A 34.12 34.12 0 0 1  511.75 238.82 L 477.63 204.7 A 34.12 34.12 0 0 0 511.75 238.82" fill="#799cb0"/><path d="M 477.63 272.94 A 34.12 34.12 0 0 1  511.75 238.82 L 477.63 272.94 A 34.12 34.12 0 0 0 511.75 238.82" fill="#80a1b4"/><rect x="545.8666666666667" y="204.7" width="68.23333333333333" height="68.23333333333333" fill="#ffffff"/><path d="M 579.98 272.94 A 34.12 34.12 0 0 1  614.1 238.82 L 579.98 272.94 A 34.12 34.12 0 0 0 614.1 238.82" fill="#4992b9"/><rect x="204.7" y="272.93333333333334" width="68.23333333333333" height="68.23333333333333" fill="#ffffff"/><path d="M 204.7 272.93 A 34.12 34.12 0 0 1  238.82 307.05 L 204.7 272.93 A 34.12 34.12 0 0 0 238.82 307.05" fill="#b2d1e1"/><path d="M 238.82 272.93 A 34.12 34.12 0 0 1  272.94 307.05 L 238.82 272.93 A 34.12 34.12 0 0 0 272.94 307.05" fill="#a3c8dc"/><path d="M 238.82 341.17 A 34.12 34.12 0 0 1  272.94 307.05 L 238.82 341.17 A 34.12 34.12 0 0 0 272.94 307.05" fill="#dbeaf1"/><rect x="272.93333333333334" y="272.93333333333334" width="68.23333333333333" height="68.23333333333333" fill="#ffffff"/><path d="M 307.05 272.93 A 34.12 34.12 0 0 1  341.17 307.05 L 307.05 272.93 A 34.12 34.12 0 0 0 341.17 307.05" fill="#5599be"/><path d="M 409.4 341.16 A 68.23 68.23 0 0 1  477.63 272.93 L 409.4 341.16 A 68.23 68.23 0 0 0 477.63 272.93" fill="#668ea5"/><path d="M 477.63 341.16 A 68.23 68.23 0 0 1  545.86 272.93 L 477.63 341.16 A 68.23 68.23 0 0 0 545.86 272.93" fill="#527f99"/><rect x="545.8666666666667" y="272.93333333333334" width="68.23333333333333" height="68.23333333333333" fill="#ffffff"/><path d="M 579.98 272.93 A 34.12 34.12 0 0 1  614.1 307.05 L 579.98 272.93 A 34.12 34.12 0 0 0 614.1 307.05" fill="#1e597a"/><path d="M 579.98 341.17 A 34.12 34.12 0 0 1  614.1 307.05 L 579.98 341.17 A 34.12 34.12 0 0 0 614.1 307.05" fill="#6da8c7"/><path d="M 614.1 341.16 A 68.23 68.23 0 0 1  682.33 272.93 L 614.1 341.16 A 68.23 68.23 0 0 0 682.33 272.93" fill="#c7d6de"/></g></svg>